<svg width="714" height="165" viewBox="0 0 714 165" fill="none" xmlns="http://www.w3.org/2000/svg">
<path d="M26.6312 127.338V130.694H26.3063V40.9681H26.6312V127.338Z" stroke="white" stroke-width="8.61257"/>
<path d="M35.2438 33.8063H124.969V123.532H35.2438V33.8063Z" stroke="white" stroke-width="8.61257"/>
<path d="M67.0214 62.8017C67.0214 58.6848 67.6264 54.5243 69.1709 50.9788C58.9024 55.4487 51.9736 65.9355 51.9736 77.8482C51.9736 93.8753 64.9667 106.868 80.9938 106.868C92.9065 106.868 103.393 99.9395 107.863 89.6711C104.318 91.2155 100.153 91.8206 96.0403 91.8206C80.0132 91.8206 67.0214 78.8288 67.0214 62.8017Z" fill="white"/>
<path d="M161.166 80.8093V24.2143H161.242L189.995 65.0295L186.884 64.4226L215.561 24.2143H215.713L215.5 35L208.885 44.6219L188.174 73.9057H188.022L167.008 44.6219L168.297 41.208V80.8093H161.166Z" fill="white"/>
<path d="M236.891 53.4222C236.891 49.629 237.599 46.0633 239.016 42.7253C240.482 39.3367 242.505 36.3527 245.085 33.7733C247.664 31.1433 250.623 29.0949 253.961 27.6282C257.35 26.1109 260.991 25.3523 264.885 25.3523C268.729 25.3523 272.32 26.1109 275.658 27.6282C279.047 29.0949 282.031 31.1433 284.61 33.7733C287.24 36.3527 289.289 39.3367 290.755 42.7253C292.222 46.0633 292.955 49.629 292.955 53.4222C292.955 57.3166 292.222 60.9581 290.755 64.3467C289.289 67.7353 287.24 70.7193 284.61 73.2987C282.031 75.8276 279.047 77.8253 275.658 79.292C272.32 80.7082 268.729 81.4162 264.885 81.4162C260.991 81.4162 257.35 80.7082 253.961 79.292C250.623 77.8759 247.664 75.9034 245.085 73.3746C242.505 70.8458 240.482 67.8871 239.016 64.4984C237.599 61.1098 236.891 57.4177 236.891 53.4222ZM244.478 53.4981C244.478 56.3809 245.009 59.0868 246.071 61.6156C247.133 64.0938 248.6 66.2939 250.471 68.2158C252.342 70.1377 254.517 71.655 256.995 72.7677C259.474 73.8298 262.154 74.3608 265.037 74.3608C267.869 74.3608 270.525 73.8298 273.003 72.7677C275.481 71.655 277.631 70.1377 279.451 68.2158C281.272 66.2939 282.714 64.0938 283.776 61.6156C284.838 59.0868 285.369 56.3556 285.369 53.4222C285.369 50.5393 284.838 47.8335 283.776 45.3047C282.714 42.7253 281.247 40.4746 279.376 38.5527C277.504 36.6308 275.329 35.1388 272.851 34.0767C270.373 32.964 267.718 32.4077 264.885 32.4077C262.003 32.4077 259.322 32.964 256.844 34.0767C254.366 35.1894 252.191 36.7067 250.319 38.6286C248.448 40.5505 247.007 42.8012 245.995 45.3806C244.984 47.9094 244.478 50.6152 244.478 53.4981Z" fill="white"/>
<path d="M310.77 53.4222C310.77 49.629 311.479 46.0633 312.895 42.7253C314.361 39.3367 316.384 36.3527 318.964 33.7733C321.543 31.1433 324.502 29.0949 327.84 27.6282C331.229 26.1109 334.87 25.3523 338.764 25.3523C342.608 25.3523 346.199 26.1109 349.537 27.6282C352.926 29.0949 355.91 31.1433 358.489 33.7733C361.119 36.3527 363.168 39.3367 364.634 42.7253C366.101 46.0633 366.834 49.629 366.834 53.4222C366.834 57.3166 366.101 60.9581 364.634 64.3467C363.168 67.7353 361.119 70.7193 358.489 73.2987C355.91 75.8276 352.926 77.8253 349.537 79.292C346.199 80.7082 342.608 81.4162 338.764 81.4162C334.87 81.4162 331.229 80.7082 327.84 79.292C324.502 77.8759 321.543 75.9034 318.964 73.3746C316.384 70.8458 314.361 67.8871 312.895 64.4984C311.479 61.1098 310.77 57.4177 310.77 53.4222ZM318.357 53.4981C318.357 56.3809 318.888 59.0868 319.95 61.6156C321.012 64.0938 322.479 66.2939 324.35 68.2158C326.222 70.1377 328.396 71.655 330.875 72.7677C333.353 73.8298 336.033 74.3608 338.916 74.3608C341.749 74.3608 344.404 73.8298 346.882 72.7677C349.36 71.655 351.51 70.1377 353.331 68.2158C355.151 66.2939 356.593 64.0938 357.655 61.6156C358.717 59.0868 359.248 56.3556 359.248 53.4222C359.248 50.5393 358.717 47.8335 357.655 45.3047C356.593 42.7253 355.126 40.4746 353.255 38.5527C351.383 36.6308 349.209 35.1388 346.73 34.0767C344.252 32.964 341.597 32.4077 338.764 32.4077C335.882 32.4077 333.201 32.964 330.723 34.0767C328.245 35.1894 326.07 36.7067 324.198 38.6286C322.327 40.5505 320.886 42.8012 319.874 45.3806C318.863 47.9094 318.357 50.6152 318.357 53.4981Z" fill="white"/>
<path d="M435.555 82.5542L388.443 34V24.2902L430.396 67.4572L428.651 67.0778L428.499 25.9592H435.782V82.5542H435.555Z" fill="white"/>
<path d="M488.76 35.7457C486.889 34.7848 484.84 33.9503 482.615 33.2422C480.39 32.5341 478.215 32.1801 476.091 32.1801C473.157 32.1801 470.805 32.8629 469.035 34.2285C467.316 35.594 466.456 37.4148 466.456 39.6907C466.456 41.4103 467.012 42.877 468.125 44.0909C469.238 45.2541 470.704 46.2656 472.525 47.1254C474.346 47.9852 476.242 48.7945 478.215 49.5531C479.935 50.2106 481.629 50.944 483.298 51.7532C484.967 52.5624 486.459 53.5739 487.774 54.7878C489.139 56.0016 490.202 57.4936 490.96 59.2638C491.769 61.034 492.174 63.234 492.174 65.864C492.174 68.7469 491.441 71.3768 489.974 73.7539C488.558 76.131 486.509 78.0023 483.829 79.3679C481.148 80.7335 477.962 81.4162 474.27 81.4162C471.842 81.4162 469.516 81.1381 467.29 80.5817C465.116 80.0254 463.093 79.3173 461.221 78.4575C459.35 77.5472 457.681 76.6115 456.214 75.6505L459.476 69.8848C460.69 70.7446 462.081 71.5791 463.649 72.3884C465.217 73.147 466.861 73.7792 468.58 74.285C470.3 74.7402 471.969 74.9678 473.587 74.9678C475.307 74.9678 477.001 74.6643 478.67 74.0574C480.39 73.3999 481.806 72.4136 482.919 71.0987C484.031 69.7837 484.588 68.0388 484.588 65.864C484.588 63.9927 484.082 62.4501 483.07 61.2363C482.109 59.9718 480.82 58.9097 479.201 58.0499C477.583 57.1396 475.863 56.3303 474.042 55.6223C472.323 54.9648 470.578 54.2567 468.808 53.4981C467.038 52.6888 465.394 51.7279 463.876 50.6152C462.359 49.452 461.145 48.0358 460.235 46.3668C459.325 44.6978 458.869 42.6747 458.869 40.2976C458.869 37.4148 459.552 34.9112 460.918 32.787C462.334 30.6122 464.256 28.9179 466.683 27.7041C469.111 26.4397 471.893 25.7569 475.029 25.6558C478.569 25.6558 481.679 26.0857 484.36 26.9455C487.091 27.8053 489.493 28.8674 491.567 30.1318L488.76 35.7457Z" fill="white"/>
<path d="M556.768 25.9592V80.8093H549.485V56.7603H520.732V80.8093H513.373V25.9592H520.732V49.7807H549.485V25.9592H556.768Z" fill="white"/>
<path d="M577.986 53.4222C577.986 49.629 578.694 46.0633 580.11 42.7253C581.577 39.3367 583.6 36.3527 586.179 33.7733C588.759 31.1433 591.717 29.0949 595.055 27.6282C598.444 26.1109 602.085 25.3523 605.98 25.3523C609.824 25.3523 613.415 26.1109 616.753 27.6282C620.141 29.0949 623.125 31.1433 625.705 33.7733C628.335 36.3527 630.383 39.3367 631.85 42.7253C633.316 46.0633 634.05 49.629 634.05 53.4222C634.05 57.3166 633.316 60.9581 631.85 64.3467C630.383 67.7353 628.335 70.7193 625.705 73.2987C623.125 75.8276 620.141 77.8253 616.753 79.292C613.415 80.7082 609.824 81.4162 605.98 81.4162C602.085 81.4162 598.444 80.7082 595.055 79.292C591.717 77.8759 588.759 75.9034 586.179 73.3746C583.6 70.8458 581.577 67.8871 580.11 64.4984C578.694 61.1098 577.986 57.4177 577.986 53.4222ZM585.572 53.4981C585.572 56.3809 586.103 59.0868 587.165 61.6156C588.228 64.0938 589.694 66.2939 591.566 68.2158C593.437 70.1377 595.612 71.655 598.09 72.7677C600.568 73.8298 603.249 74.3608 606.132 74.3608C608.964 74.3608 611.619 73.8298 614.097 72.7677C616.576 71.655 618.725 70.1377 620.546 68.2158C622.367 66.2939 623.808 64.0938 624.87 61.6156C625.932 59.0868 626.463 56.3556 626.463 53.4222C626.463 50.5393 625.932 47.8335 624.87 45.3047C623.808 42.7253 622.341 40.4746 620.47 38.5527C618.599 36.6308 616.424 35.1388 613.946 34.0767C611.467 32.964 608.812 32.4077 605.98 32.4077C603.097 32.4077 600.416 32.964 597.938 34.0767C595.46 35.1894 593.285 36.7067 591.414 38.6286C589.542 40.5505 588.101 42.8012 587.09 45.3806C586.078 47.9094 585.572 50.6152 585.572 53.4981Z" fill="white"/>
<path d="M651.258 25.9592H687.673V33.0146H672.955V80.8093H665.596V33.0146H651.258V25.9592Z" fill="white"/>
<path d="M297.988 117.976H286.533V130.191H284.712V103.259H300.188V104.928H286.533V116.307H297.988V117.976ZM366.615 116.725C366.615 124.88 361.343 130.646 353.87 130.646C346.397 130.646 341.163 124.88 341.163 116.725C341.163 108.569 346.435 102.804 353.87 102.804C361.343 102.804 366.615 108.569 366.615 116.725ZM364.757 116.725C364.757 109.555 360.281 104.548 353.87 104.548C347.497 104.548 343.021 109.555 343.021 116.725C343.021 123.894 347.497 128.901 353.87 128.901C360.281 128.901 364.757 123.894 364.757 116.725ZM411.479 130.191H409.659V103.259H419.597C424.718 103.259 427.942 106.217 427.942 110.807C427.942 114.752 425.742 117.559 422.138 118.318L428.17 130.191H426.121L420.242 118.545H411.479V130.191ZM411.479 104.928V116.876H419.673C423.732 116.876 426.083 114.6 426.083 110.883C426.083 107.052 423.542 104.928 419.597 104.928H411.479ZM482.226 104.548C475.664 104.548 471.339 109.48 471.339 116.801C471.339 124.235 475.777 128.901 482.34 128.901C486.74 128.901 491.861 126.928 491.861 119.494V117.559H481.391V115.89H493.606V130.229H492.24L492.012 125.373C490.609 128.332 487.081 130.646 482.416 130.646C474.715 130.646 469.481 125.184 469.481 116.839C469.481 108.569 474.677 102.804 482.226 102.804C487.688 102.804 491.937 105.876 493.112 110.504H491.102C489.85 106.597 486.474 104.548 482.226 104.548ZM554.055 130.191H538.199V103.259H554.017V104.928H540.02V115.852H552.765V117.521H540.02V128.522H554.055V130.191Z" fill="white"/>
</svg>
