<svg width="24" height="24" viewBox="0 0 24 24" fill="none" xmlns="http://www.w3.org/2000/svg">
<mask id="mask0_15748_2571" style="mask-type:alpha" maskUnits="userSpaceOnUse" x="0" y="0" width="24" height="24">
<rect width="24" height="24" fill="#D9D9D9"/>
</mask>
<g mask="url(#mask0_15748_2571)">
<path d="M6.5 20C4.96667 20 3.66667 19.4667 2.6 18.4C1.53333 17.3333 1 16.0333 1 14.5C1 13.2 1.40417 12.0542 2.2125 11.0625C3.02083 10.0708 4.03333 9.43333 5.25 9.15C5.66667 7.65 6.49167 6.41667 7.725 5.45C8.95833 4.48333 10.3833 4 12 4C13.9833 4 15.6458 4.6875 16.9875 6.0625C18.3292 7.4375 19 9.08333 19 11C20.25 11.1333 21.2292 11.65 21.9375 12.55C22.6458 13.45 23 14.425 23 15.475C23 16.725 22.5625 17.7917 21.6875 18.675C20.8125 19.5583 19.75 20 18.5 20H6.5ZM6.5 18H18.5C19.2 18 19.7917 17.7583 20.275 17.275C20.7583 16.7917 21 16.2 21 15.5C21 14.8 20.7583 14.2083 20.275 13.725C19.7917 13.2417 19.2 13 18.5 13H17V11C17 9.61667 16.5125 8.4375 15.5375 7.4625C14.5625 6.4875 13.3833 6 12 6C10.95 6 10.0167 6.2875 9.2 6.8625C8.38333 7.4375 7.78333 8.175 7.4 9.075C8.7 9.29167 9.79167 9.90417 10.675 10.9125C11.5583 11.9208 12 13.1167 12 14.5H10C10 13.5333 9.65833 12.7083 8.975 12.025C8.29167 11.3417 7.46667 11 6.5 11C5.53333 11 4.70833 11.3417 4.025 12.025C3.34167 12.7083 3 13.5333 3 14.5C3 15.4667 3.34167 16.2917 4.025 16.975C4.70833 17.6583 5.53333 18 6.5 18Z" fill="white"/>
</g>
</svg>
