<svg width="24" height="24" viewBox="0 0 24 24" fill="none" xmlns="http://www.w3.org/2000/svg">
<mask id="mask0_15748_2574" style="mask-type:alpha" maskUnits="userSpaceOnUse" x="0" y="0" width="24" height="24">
<rect width="24" height="24" fill="#D9D9D9"/>
</mask>
<g mask="url(#mask0_15748_2574)">
<path d="M19 9C18.05 9 17.225 8.71667 16.525 8.15C15.825 7.58333 15.3583 6.86667 15.125 6H8.85C8.66667 6.7 8.32083 7.30417 7.8125 7.8125C7.30417 8.32083 6.7 8.66667 6 8.85V15.125C6.86667 15.3583 7.58333 15.825 8.15 16.525C8.71667 17.225 9 18.05 9 19C9 20.1 8.60833 21.0417 7.825 21.825C7.04167 22.6083 6.1 23 5 23C3.9 23 2.95833 22.6083 2.175 21.825C1.39167 21.0417 1 20.1 1 19C1 18.05 1.28333 17.225 1.85 16.525C2.41667 15.825 3.13333 15.3583 4 15.125V8.85C3.13333 8.61667 2.41667 8.15 1.85 7.45C1.28333 6.75 1 5.93333 1 5C1 3.9 1.39167 2.95833 2.175 2.175C2.95833 1.39167 3.9 1 5 1C5.93333 1 6.75 1.28333 7.45 1.85C8.15 2.41667 8.61667 3.13333 8.85 4H15.125C15.3583 3.13333 15.825 2.41667 16.525 1.85C17.225 1.28333 18.05 1 19 1C20.1 1 21.0417 1.39167 21.825 2.175C22.6083 2.95833 23 3.9 23 5C23 6.1 22.6083 7.04167 21.825 7.825C21.0417 8.60833 20.1 9 19 9ZM5 21C5.55 21 6.02083 20.8 6.4125 20.4C6.80417 20 7 19.5333 7 19C7 18.45 6.80417 17.9792 6.4125 17.5875C6.02083 17.1958 5.55 17 5 17C4.46667 17 4 17.1958 3.6 17.5875C3.2 17.9792 3 18.45 3 19C3 19.5333 3.2 20 3.6 20.4C4 20.8 4.46667 21 5 21ZM5 7C5.55 7 6.02083 6.80417 6.4125 6.4125C6.80417 6.02083 7 5.55 7 5C7 4.45 6.80417 3.97917 6.4125 3.5875C6.02083 3.19583 5.55 3 5 3C4.46667 3 4 3.19583 3.6 3.5875C3.2 3.97917 3 4.45 3 5C3 5.55 3.2 6.02083 3.6 6.4125C4 6.80417 4.46667 7 5 7ZM19 23C17.9 23 16.9583 22.6083 16.175 21.825C15.3917 21.0417 15 20.1 15 19C15 17.9 15.3917 16.9583 16.175 16.175C16.9583 15.3917 17.9 15 19 15C20.1 15 21.0417 15.3917 21.825 16.175C22.6083 16.9583 23 17.9 23 19C23 20.1 22.6083 21.0417 21.825 21.825C21.0417 22.6083 20.1 23 19 23ZM19 21C19.55 21 20.0208 20.8 20.4125 20.4C20.8042 20 21 19.5333 21 19C21 18.45 20.8042 17.9792 20.4125 17.5875C20.0208 17.1958 19.55 17 19 17C18.45 17 17.9792 17.1958 17.5875 17.5875C17.1958 17.9792 17 18.45 17 19C17 19.5333 17.1958 20 17.5875 20.4C17.9792 20.8 18.45 21 19 21ZM19 7C19.55 7 20.0208 6.80417 20.4125 6.4125C20.8042 6.02083 21 5.55 21 5C21 4.45 20.8042 3.97917 20.4125 3.5875C20.0208 3.19583 19.55 3 19 3C18.45 3 17.9792 3.19583 17.5875 3.5875C17.1958 3.97917 17 4.45 17 5C17 5.55 17.1958 6.02083 17.5875 6.4125C17.9792 6.80417 18.45 7 19 7Z" fill="white"/>
</g>
</svg>
